# xmcd
#
# Track frame offsets:
#	150
#	10407
#	21573
#	47417
#	59465
#	66554
#	73443
#	84946
#	97272
#	109829
#	119915
#	136745
#	146869
#	157671
#	168506
#	180501
#	189543
#	200303
#	212772
#	225615
#	238607
#	254232
#	268327
#	281677
#	296109
#	305872
#	319032
#	332063
#	345014
#
# Disc length: 4780 seconds
#
# Revision: 0
# Processed by: cddbd v1.5.2PL0 Copyright (c) Steve Scherf et al.
# Submitted via: audiograbber 1.83.01
#
DISCID=cf12aa1d
DTITLE=Roy Orbison - The Monumental Roy Orbison - Volume 4
DYEAR=2013
DGENRE=Rock and Roll
TTITLE0=Paper Boy (RCA Victor)
TTITLE1=With The Bug (RCA Victor)
TTITLE2=Double Date (takes 1, 2, 5, 6)
TTITLE3=I Guess I'm Lonely (demo)
TTITLE4=Velveteen Doll (demo)
TTITLE5=She's Okay (demo)
TTITLE6=Blue Avenue (alt. take)
TTITLE7=Here Comes That Song Again (alt. take)
TTITLE8=Blue Angel (alt. take)
TTITLE9=Today's Teardrops (alt. take)
TTITLE10=Twenty-Two Days (false start, original mix)
TTITLE11=I'll Say It's My Fault (alt. take)
TTITLE12=Love Hurts (alt. take)
TTITLE13=Remember When (demo)
TTITLE14=Love Storm (demo)
TTITLE15=Down The Line
TTITLE16=Lana
TTITLE17=(They Call You) Gigolette (alt. take of high C version)
TTITLE18=Borne On The Wind (single version)
TTITLE19=Pretty Paper (alt. take)
TTITLE20=It's Over (false start, alt. take)
TTITLE21=Indian Wedding (alt. take)
TTITLE22=Oh Pretty Woman (single version)
TTITLE23=(Say) You're My Girl (false start, alt. take)
TTITLE24=You Fool You (MGM recording)
TTITLE25=Cry Softly Lonely One (single version)
TTITLE26=God Love You
TTITLE27=I Can't Stop Loving You (MGM version)
TTITLE28=Drifting Away
EXTD=A collection of alternate takes, demos and versions for other labels - MGM 
EXTD=recordings involving Joe Melson as co-writer or co-producer.
EXTT0=
EXTT1=
EXTT2=
EXTT3=With Joe Melson.
EXTT4=With Joe Melson.
EXTT5=With Joe Melson.
EXTT6=
EXTT7=
EXTT8=
EXTT9=
EXTT10=
EXTT11=
EXTT12=
EXTT13=
EXTT14=
EXTT15=Performed by El Riot and The Rebels, featuring Ray Thomas and John Lodge, 
EXTT15=later of The Moody Blues. Acetate demo ca. 1961. "Down The Line" was a r
EXTT15=ewrite of "Go! Go! Go!" from Roy's first Sun single.
EXTT16=Performed by The Velvets, featuring Virgil Johnson, recorded for Monumen
EXTT16=t ca. 1961.
EXTT17=
EXTT18=
EXTT19=
EXTT20=
EXTT21=
EXTT22=
EXTT23=
EXTT24=
EXTT25=
EXTT26=
EXTT27=
EXTT28=From Roy's brief reunion with Monument, 1976.
PLAYORDER=
